<?xml version="1.0" encoding="UTF-8"?>
<svg id="Layer_2" data-name="Layer 2" xmlns="http://www.w3.org/2000/svg" viewBox="0 0 314.07 331">
  <g id="Layer_1-2" data-name="Layer 1">
    <path d="M21.76,0h269.53c11.81,0,21.38,9.57,21.38,21.38l.4.43c0,179.96-78.25,151.47-101.79,99.9-21.83-47.82-69.27-78.75-121.83-78.51h0c-11.81,0-21.38,9.57-21.38,21.38v41.04c0,11.81,9.57,21.38,21.38,21.38h28.6c25.96,0,21.38,9.57,21.38,21.38h0c0,8.39,2.58,15.18-15.18,15.18h-28.6c-15.17,0-27.58,12.41-27.58,27.58v86.4q.14,53.45-21.56,53.45h-26.35q-20.15,0-20.15-52.69L.38,21.38C.38,9.57,9.95,0,21.76,0Z"/>
    <path d="M140.58,193.04c15.41-10.1,47.66-25.8,100.82-22,69.56,4.98,72.66,22.03,72.66,54.57,0,35.47-15.93,63.02-72.66,63.95-69.92,1.14-84.13-11.45-96.33-19.3h-1.28v44.46c0,8.92-7.23,16.14-16.14,16.14h-38.99c-8.92,0-16.14-7.23-16.14-16.14v-124.84c0-8.92,10.33-22.34,19.24-22.34h34.81c10.19,0,14.73,15.52,12.73,25.5h0s1.28,0,1.28,0ZM222.14,269.13c51.37,0,74.88-21.75,74.88-43.52s-24.8-9.3-74.88-34.15c-47.17-23.4-81.56,17.06-81.56,38.83s28.9,38.83,81.56,38.83Z"/>
  </g>
</svg>