<svg width="141" height="43" viewBox="0 0 141 43" fill="none" xmlns="http://www.w3.org/2000/svg"><g clip-path="url(#a)" fill="#000"><path d="M126.851.058h-13.725v11.246h6.604c5.453 0 9.883 4.43 9.883 9.882 0 5.453-4.43 9.883-9.883 9.883h-6.604v11.258h13.725l14.148-11.234v-19.8L126.851.057zM98.978.058H85.253v11.246h6.604c5.453 0 9.883 4.43 9.883 9.882 0 5.453-4.43 9.883-9.883 9.883h-6.604v11.258h13.725l14.148-11.234v-19.8L98.978.057z"/></g><g clip-path="url(#b)" fill="#000"><path d="M12.198 42.327H0v-3.933h12.198c9.313-.082 16.813-7.888 16.813-17.202 0-9.313-7.5-17.048-16.813-17.201H0V.058h12.198c11.656 0 21.205 9.478 21.205 21.134 0 11.657-9.56 21.135-21.205 21.135z"/><path d="M11.656 35.31h-5.18v-3.933h5.18c5.451 0 9.725-4.745 9.725-10.185s-4.274-10.184-9.725-10.184h-5.18V7.075h5.18c7.783 0 14.117 6.335 14.117 14.117 0 7.783-6.334 14.117-14.117 14.117z"/></g><defs><clipPath id="a"><path fill="#fff" transform="translate(85.253 .058)" d="M0 0h55.747v42.268H0z"/></clipPath><clipPath id="b"><path fill="#fff" transform="translate(0 .058)" d="M0 0h33.403v42.268H0z"/></clipPath></defs></svg>