<?xml version="1.0" encoding="UTF-8"?>
<svg id="Layer_2" data-name="Layer 2" xmlns="http://www.w3.org/2000/svg" viewBox="0 0 1229.8 154.04">
  <g id="Layer_1-2" data-name="Layer 1">
    <g>
      <path d="M0,0h100.87v27.35H30.85v35.45h66.52v26.91H30.85v61.71H0V0Z"/>
      <path d="M128,41.14h53.17l-1.75,20.13h.88c5.25-12.03,15.97-22.76,31.07-22.76,17.29,0,26.91,12.91,26.91,29.76,0,4.16-.22,7.88-.88,10.5l-.66,4.38-28.45,16.19c.66-3.28,2.63-9.85,2.63-18.82,0-8.1-2.84-15.97-12.47-15.97-11.38,0-17.29,10.94-17.29,28.66v35.23h35.89v22.98h-93.87v-22.98h28.88v-63.67h-24.07v-23.63Z"/>
      <path d="M284.88,84.02l-27.13-14.44c8.75-18.38,29.32-31.07,54.48-31.07s46.17,13.35,46.17,41.36v43.76c0,11.6.44,19.26,2.84,27.79h-23.19c-3.5-5.03-4.6-8.53-6.13-13.79h-.66c-4.6,6.78-14.66,16.41-32.6,16.41-20.13,0-37.42-12.03-37.42-32.38,0-24.51,23.85-31.07,41.79-34.57,15.75-3.5,26.48-5.25,26.48-12.91s-7.66-12.03-17.07-12.03c-13.35,0-23.41,7.88-27.57,21.88ZM330.4,97.37c-3.28,4.16-11.38,6.13-20.13,8.53-9.85,2.41-19.26,4.81-19.26,13.57,0,6.78,5.47,11.38,15.75,11.38,11.6,0,23.63-7.66,23.63-21.01v-12.47Z"/>
      <path d="M491.44,151.42h-30.85v-64.33c0-15.1-6.78-22.54-18.38-22.54-12.25,0-20.13,9.63-20.13,23.63v63.24h-30.85V41.14h30.85l-1.53,18.16h.66c5.25-10.06,16.63-20.79,34.57-20.79,21.22,0,35.67,14.88,35.67,42.23v70.68Z"/>
      <path d="M601.6,0h57.98c33.92,0,53.83,16.63,53.83,47.04s-19.91,47.92-53.83,47.92h-27.13v56.45h-30.85V0ZM660.46,27.13h-28.01v40.7h28.01c14.88,0,21.44-7.88,21.44-20.79s-6.56-19.91-21.44-19.91Z"/>
      <path d="M761.11,104.59c1.75,18.16,13.79,26.7,26.91,26.7,11.6,0,22.1-7.66,23.85-18.16l26.26,14.66c-8.32,14.22-26.26,26.26-50.11,26.26-32.17,0-56.02-21.66-56.02-57.77s24.51-57.77,55.36-57.77,52.08,21.01,52.08,50.98c0,4.59-.22,8.31-.88,10.94l-.88,4.16h-76.58ZM761.77,84.02h48.79c0-13.35-11.16-23.19-23.19-23.19-11.38,0-22.32,8.1-25.6,23.19Z"/>
      <path d="M865.7,41.14h53.17l-1.75,20.13h.88c5.25-12.03,15.97-22.76,31.07-22.76,17.29,0,26.91,12.91,26.91,29.76,0,4.16-.22,7.88-.88,10.5l-.66,4.38-28.45,16.19c.66-3.28,2.63-9.85,2.63-18.82,0-8.1-2.84-15.97-12.47-15.97-11.38,0-17.29,10.94-17.29,28.66v35.23h35.88v22.98h-93.87v-22.98h28.88v-63.67h-24.07v-23.63Z"/>
      <path d="M1023.68,104.59c1.75,18.16,13.79,26.7,26.91,26.7,11.6,0,22.1-7.66,23.85-18.16l26.26,14.66c-8.31,14.22-26.26,26.26-50.11,26.26-32.17,0-56.02-21.66-56.02-57.77s24.51-57.77,55.36-57.77,52.08,21.01,52.08,50.98c0,4.59-.22,8.31-.88,10.94l-.88,4.16h-76.58ZM1024.34,84.02h48.79c0-13.35-11.16-23.19-23.19-23.19-11.38,0-22.32,8.1-25.6,23.19Z"/>
      <path d="M1130.46,41.14h97.15v17.29l-57.11,69.36h59.3v23.63h-100.21v-17.29l56.89-69.36h-56.02v-23.63Z"/>
    </g>
  </g>
</svg>